# xmcd CD database file
#
# Track frame offsets:
#	150
#	16433
#	30577
#	42337
#	59451
#	80097
#	111203
#	124473
#	140412
#	162773
#	175978
#	200607
#	222400
#	238530
#	261428
#	274025
#
# Disc length: 3985 seconds
#
# Revision: 0
# Processed by: cddbd v1.4PL0 Copyright (c) Steve Scherf et al.
# Submitted via: CDex 1.40Release
#
DISCID=f10f8f10
DTITLE=Sid Griffin - Worldwide Live 1997-2002
DYEAR=2002
DGENRE=Country
TTITLE0=What About Tomorrow
TTITLE1=Death Like A Valentine
TTITLE2=Ivory Tower
TTITLE3=Jimmy Reed
TTITLE4=A Dry Eye In The House 
TTITLE5=Everywhere
TTITLE6=Wearing Out My Welcome With The Blues
TTITLE7=How Did We Get This Far?
TTITLE8=I Tell Her All The Time
TTITLE9=Fair Game
TTITLE10=Emily In Ginger
TTITLE11=Where Bluebirds Fly
TTITLE12=Lost In This World (Without You)
TTITLE13=The light that shines within
TTITLE14=final wild son
TTITLE15=capturing the flag
EXTD=YEAR: 2002 ID3G: 2
EXTT0=
EXTT1=
EXTT2=
EXTT3=
EXTT4=
EXTT5=
EXTT6=
EXTT7=
EXTT8=
EXTT9=
EXTT10=
EXTT11=
EXTT12=
EXTT13=
EXTT14=
EXTT15=
PLAYORDER=
